<!-- Generated by IcoMoon.io -->
<svg version="1.1" xmlns="http://www.w3.org/2000/svg" width="18" height="18" viewBox="0 0 32 32">
<style>*{fill:#CBCBCB;}</style>
<title>cancel</title>
<path d="M18.829 12.26l-2.833 2.821-2.773-2.772c-0.116-0.118-0.277-0.19-0.456-0.19-0.354 0-0.64 0.287-0.64 0.64 0 0.175 0.071 0.334 0.185 0.45l2.779 2.779-2.773 2.773c-0.118 0.112-0.196 0.266-0.211 0.437l-0 0.003c-0.001 0.010-0.001 0.022-0.001 0.033 0 0.169 0.065 0.322 0.17 0.437l-0-0c0.12 0.125 0.289 0.202 0.475 0.202 0.184 0 0.351-0.075 0.47-0.197l2.779-2.778 2.766 2.766c0.11 0.122 0.265 0.201 0.439 0.211l0.002 0c0.008 0 0.017 0.001 0.026 0.001 0.171 0 0.326-0.064 0.444-0.17l-0.001 0.001 0.018-0.018c0.109-0.109 0.18-0.256 0.192-0.42l0-0.002c0-0.005 0-0.010 0-0.016 0-0.189-0.076-0.36-0.2-0.484l-2.78-2.779 2.786-2.785c0.104-0.114 0.167-0.267 0.167-0.434 0-0.188-0.081-0.358-0.209-0.476l-0-0c-0.112-0.105-0.263-0.17-0.429-0.17-0.15 0-0.287 0.052-0.395 0.14l0.001-0.001z"></path>
<path d="M16.001 0.964v0c-8.304 0-15.036 6.732-15.036 15.036s6.732 15.036 15.036 15.036c8.304 0 15.036-6.732 15.036-15.036v0c0-8.304-6.732-15.036-15.036-15.036v0zM16.001 29.488c-7.449 0-13.488-6.039-13.488-13.488s6.039-13.488 13.488-13.488c7.449 0 13.488 6.039 13.488 13.488v0c0 7.449-6.039 13.488-13.488 13.488v0z"></path>
</svg>
