<!-- Generated by IcoMoon.io -->
<svg version="1.1" xmlns="http://www.w3.org/2000/svg" width="18" height="18" viewBox="0 0 32 32">
<title>search</title>
<path d="M30.329 29.958l-6.524-6.665c2.24-2.362 3.617-5.562 3.617-9.083 0-7.297-5.916-13.213-13.213-13.213s-13.213 5.916-13.213 13.213c0 7.297 5.916 13.213 13.213 13.213 3.102 0 5.955-1.069 8.21-2.859l-0.027 0.021 6.559 6.7c0.173 0.17 0.41 0.275 0.672 0.275 0.529 0 0.958-0.429 0.958-0.958 0-0.248-0.094-0.474-0.249-0.645l0.001 0.001zM14.221 25.503c-6.231 0-11.283-5.052-11.283-11.283s5.052-11.283 11.283-11.283v0c0 0 0.001 0 0.002 0 6.232 0 11.284 5.052 11.284 11.284 0 6.157-4.932 11.163-11.060 11.282l-0.011 0z"></path>
</svg>
