<svg xmlns="http://www.w3.org/2000/svg" width="18" height="18" viewBox="0 0 18 18"><defs><style>.a{fill:#707070;}.b{fill:none;}</style></defs><g transform="translate(-1495.335 -392)"><g transform="translate(1495.335 392)"><g transform="translate(2.707 0.541)"><path class="a" d="M5847.325,3927.6l-.005-.006a6.608,6.608,0,0,0-8.8.006,6.134,6.134,0,0,0-.582,8.043l4.98,6.624,4.975-6.613A6.136,6.136,0,0,0,5847.325,3927.6Zm-.159,7.548-4.239,5.635-4.255-5.646a5.286,5.286,0,0,1,.489-6.926,5.652,5.652,0,0,1,7.521-.006A5.29,5.29,0,0,1,5847.166,3935.153Z" transform="translate(-5836.709 -3925.926)"/><path class="a" d="M5847.87,3932.89a2.231,2.231,0,1,0,.654,1.578A2.238,2.238,0,0,0,5847.87,3932.89Zm-1.578,2.935a1.36,1.36,0,1,1,1.363-1.358A1.361,1.361,0,0,1,5846.292,3935.825Z" transform="translate(-5840.019 -3928.764)"/></g><rect class="b" width="18" height="18"/></g></g></svg>